<svg width="16" height="16" viewBox="0 0 16 16" fill="none" xmlns="http://www.w3.org/2000/svg">
<g clip-path="url(#clip0_100_8)">
<path d="M6.52446 6.58225C5.93005 6.58225 5.349 6.40593 4.85482 6.0756C4.36065 5.74527 3.97556 5.27578 3.74829 4.72653C3.52103 4.17728 3.46179 3.57296 3.57808 2.99004C3.69436 2.40711 3.98095 1.87178 4.40158 1.45178C4.8222 1.03177 5.35796 0.745979 5.94105 0.630554C6.52415 0.51513 7.12838 0.575262 7.6773 0.803343C8.22621 1.03142 8.69513 1.4172 9.02473 1.91187C9.35433 2.40653 9.52979 2.98784 9.52891 3.58225C9.52656 4.37795 9.20912 5.14032 8.64606 5.70255C8.083 6.26478 7.32016 6.58108 6.52446 6.58225ZM6.52446 1.4667C6.10604 1.4667 5.69702 1.59077 5.34912 1.82323C5.00122 2.05569 4.73006 2.3861 4.56994 2.77267C4.40982 3.15923 4.36793 3.5846 4.44956 3.99498C4.53119 4.40536 4.73267 4.78231 5.02854 5.07818C5.3244 5.37404 5.70136 5.57553 6.11174 5.65716C6.52212 5.73879 6.94748 5.69689 7.33405 5.53677C7.72062 5.37665 8.05102 5.1055 8.28348 4.75759C8.51594 4.40969 8.64002 4.00067 8.64002 3.58225C8.64002 3.02117 8.41713 2.48307 8.02039 2.08633C7.62364 1.68959 7.08554 1.4667 6.52446 1.4667Z" fill="black"/>
<path d="M7.2978 14.0799C7.20067 13.9828 7.12574 13.8657 7.07817 13.7368C7.0306 13.6079 7.01152 13.4702 7.02225 13.3333H1.7778V10.7644C2.40798 10.092 3.17234 9.55936 4.0214 9.20105C4.87046 8.84275 5.7853 8.66673 6.70669 8.68439H7.02669C7.00629 8.53537 7.02054 8.38366 7.06834 8.24106C7.11613 8.09845 7.19618 7.96879 7.30225 7.86216L7.35558 7.81327C7.14669 7.81327 6.91114 7.78661 6.70669 7.78661C5.62243 7.76087 4.54599 7.97639 3.55522 8.41759C2.56444 8.85879 1.68408 9.51464 0.977805 10.3377C0.920106 10.4147 0.888916 10.5082 0.888916 10.6044V13.3333C0.888916 13.569 0.982567 13.7951 1.14927 13.9618C1.31596 14.1285 1.54206 14.2222 1.7778 14.2222H7.42225L7.2978 14.0799Z" fill="black"/>
<path d="M11.9422 7.24041C11.9642 7.23529 11.9869 7.23529 12.0089 7.24041C11.9868 7.23591 11.9642 7.23591 11.9422 7.24041Z" fill="black"/>
<path d="M14.9689 10.3644L14.08 10.0933C14.0165 9.87592 13.9301 9.66586 13.8222 9.46667L14.2667 8.64C14.2811 8.60693 14.2846 8.5701 14.2766 8.53491C14.2686 8.49972 14.2496 8.46802 14.2222 8.44445L13.5778 7.8C13.5534 7.77362 13.5209 7.7562 13.4854 7.75056C13.4499 7.74492 13.4136 7.75137 13.3822 7.76889L12.5644 8.21333C12.3631 8.10013 12.15 8.00922 11.9289 7.94222L11.6578 7.05333C11.6463 7.02062 11.6244 6.99252 11.5956 6.97328C11.5667 6.95404 11.5324 6.9447 11.4978 6.94667H10.5867C10.5517 6.94626 10.5175 6.95735 10.4894 6.97822C10.4613 6.99909 10.4408 7.0286 10.4311 7.06222L10.16 7.95111C9.9374 8.01588 9.72273 8.10532 9.52 8.21778L8.71111 7.77333C8.68043 7.75616 8.64483 7.74988 8.61012 7.75553C8.57542 7.76118 8.54365 7.77842 8.52 7.80445L7.86222 8.44445C7.83783 8.47013 7.82214 8.50283 7.81735 8.53792C7.81256 8.57302 7.81893 8.60873 7.83555 8.64L8.28 9.44889C8.16245 9.64922 8.06849 9.8625 8 10.0844L7.11111 10.3511C7.07749 10.3608 7.04798 10.3813 7.02711 10.4094C7.00623 10.4375 6.99515 10.4717 6.99556 10.5067V11.4178C6.99818 11.4499 7.01071 11.4804 7.03141 11.5051C7.05211 11.5297 7.07996 11.5474 7.11111 11.5556L8 11.8267C8.06569 12.0447 8.15511 12.2548 8.26667 12.4533L7.82222 13.3022C7.80526 13.3326 7.79869 13.3678 7.8035 13.4023C7.80832 13.4367 7.82425 13.4687 7.84889 13.4933L8.49333 14.1378C8.51851 14.1629 8.55096 14.1794 8.58607 14.185C8.62119 14.1906 8.65717 14.1849 8.68889 14.1689L9.52 13.7244C9.71779 13.8308 9.92638 13.9157 10.1422 13.9778L10.4089 14.8667C10.4198 14.8996 10.4406 14.9283 10.4684 14.949C10.4963 14.9696 10.5298 14.9813 10.5644 14.9822H11.4756C11.5104 14.9819 11.5442 14.9706 11.5722 14.9498C11.6001 14.929 11.6208 14.8999 11.6311 14.8667L11.9022 13.9556C12.1152 13.8935 12.3208 13.8085 12.5156 13.7022L13.3556 14.1467C13.3864 14.1631 13.4218 14.1689 13.4564 14.1633C13.4909 14.1577 13.5226 14.1409 13.5467 14.1156L14.2222 13.5111C14.2404 13.485 14.2501 13.454 14.2501 13.4222C14.2501 13.3904 14.2404 13.3594 14.2222 13.3333L13.7778 12.4978C13.8857 12.3017 13.9721 12.0946 14.0356 11.88L14.9244 11.6089C14.9581 11.5992 14.9876 11.5787 15.0085 11.5506C15.0293 11.5225 15.0404 11.4883 15.04 11.4533V10.52C15.0441 10.49 15.0396 10.4595 15.027 10.4319C15.0144 10.4044 14.9942 10.381 14.9689 10.3644ZM11.0444 12.4444C10.7505 12.4453 10.4629 12.3589 10.2181 12.1961C9.97327 12.0333 9.78231 11.8016 9.66941 11.5301C9.5565 11.2587 9.52673 10.9599 9.58387 10.6715C9.641 10.3831 9.78248 10.1182 9.99035 9.91035C10.1982 9.70248 10.4631 9.56101 10.7515 9.50387C11.0399 9.44673 11.3387 9.47651 11.6101 9.58941C11.8816 9.70232 12.1133 9.89327 12.2761 10.1381C12.4389 10.3829 12.5253 10.6705 12.5244 10.9644C12.5233 11.3566 12.367 11.7324 12.0897 12.0097C11.8124 12.287 11.4366 12.4433 11.0444 12.4444Z" fill="black"/>
</g>
<defs>
<clipPath id="clip0_100_8">
<rect width="16" height="16" fill="white"/>
</clipPath>
</defs>
</svg>
