<svg width="30" height="35" viewBox="0 0 30 35" fill="none" xmlns="http://www.w3.org/2000/svg">
<path d="M15 2.84375C8.1 2.84375 2.5 9.37708 2.5 17.4271C2.5 25.4771 8.1 32.0104 15 32.0104H21.25V29.0937H15C9.575 29.0937 5 23.7562 5 17.4271C5 11.0979 9.575 5.76042 15 5.76042C20.425 5.76042 25 11.0979 25 17.4271V19.5125C25 20.6646 24.1125 21.8021 23.125 21.8021C22.1375 21.8021 21.25 20.6646 21.25 19.5125V17.4271C21.25 13.4021 18.45 10.1354 15 10.1354C11.55 10.1354 8.75 13.4021 8.75 17.4271C8.75 21.4521 11.55 24.7188 15 24.7188C16.725 24.7188 18.3 23.9021 19.425 22.575C20.2375 23.8729 21.6375 24.7188 23.125 24.7188C25.5875 24.7188 27.5 22.3854 27.5 19.5125V17.4271C27.5 9.37708 21.9 2.84375 15 2.84375ZM15 21.8021C12.925 21.8021 11.25 19.8479 11.25 17.4271C11.25 15.0062 12.925 13.0521 15 13.0521C17.075 13.0521 18.75 15.0062 18.75 17.4271C18.75 19.8479 17.075 21.8021 15 21.8021Z" fill="black"/>
</svg>
