<svg width="14" height="17" viewBox="0 0 14 17" fill="none" xmlns="http://www.w3.org/2000/svg">
<g clip-path="url(#clip0_100_4)">
<path d="M5.58856 10.4869C6.17492 10.0129 6.62009 9.32233 6.85824 8.51733C7.09639 7.71233 7.11488 6.83564 6.91096 6.0169C6.70705 5.19816 6.29157 4.48084 5.72595 3.97101C5.16033 3.46118 4.47462 3.18591 3.7702 3.18591C3.06578 3.18591 2.38007 3.46118 1.81445 3.97101C1.24883 4.48084 0.833349 5.19816 0.629436 6.0169C0.425524 6.83564 0.444009 7.71233 0.682159 8.51733C0.920309 9.32233 1.36548 10.0129 1.95184 10.4869C0.891171 10.9616 -0.0146648 11.84 -0.630504 12.9911C-0.66287 13.0495 -0.685352 13.1151 -0.696642 13.1842C-0.707933 13.2533 -0.707806 13.3243 -0.69627 13.3933C-0.684735 13.4623 -0.66202 13.5279 -0.629446 13.5861C-0.596872 13.6444 -0.555089 13.6942 -0.506526 13.7326C-0.457963 13.7711 -0.403588 13.7974 -0.346562 13.8102C-0.289536 13.8229 -0.230997 13.8217 -0.174347 13.8067C-0.117697 13.7917 -0.0640659 13.7632 -0.0165719 13.7228C0.030922 13.6824 0.0713319 13.631 0.102309 13.5715C0.499553 12.8296 1.04313 12.2199 1.68367 11.7979C2.32422 11.3758 3.04144 11.1548 3.7702 11.1548C4.49896 11.1548 5.21618 11.3758 5.85673 11.7979C6.49727 12.2199 7.04085 12.8296 7.43809 13.5715C7.50226 13.6873 7.60138 13.7678 7.71403 13.7955C7.82668 13.8233 7.94381 13.7961 8.04009 13.7199C8.13637 13.6436 8.20406 13.5244 8.22854 13.3881C8.25302 13.2517 8.23232 13.1091 8.1709 12.9911C7.55506 11.84 6.64923 10.9616 5.58856 10.4869ZM1.36395 7.1719C1.36395 6.59401 1.50507 6.0291 1.76948 5.5486C2.03388 5.0681 2.40968 4.69359 2.84937 4.47244C3.28905 4.25129 3.77287 4.19343 4.23964 4.30617C4.7064 4.41891 5.13515 4.6972 5.47168 5.10583C5.8082 5.51446 6.03737 6.03509 6.13021 6.60188C6.22306 7.16866 6.17541 7.75616 5.99328 8.29006C5.81116 8.82396 5.50275 9.2803 5.10704 9.60136C4.71133 9.92241 4.24611 10.0938 3.7702 10.0938C3.13224 10.0929 2.52063 9.78478 2.06952 9.23701C1.61842 8.68925 1.36467 7.94656 1.36395 7.1719ZM12.856 13.7262C12.7588 13.8032 12.6404 13.8301 12.5269 13.8011C12.4134 13.772 12.314 13.6895 12.2506 13.5715C11.8538 12.8291 11.3103 12.2192 10.6696 11.7973C10.029 11.3755 9.31151 11.1551 8.5827 11.1563C8.46667 11.1563 8.35539 11.1003 8.27334 11.0007C8.19129 10.9011 8.1452 10.7659 8.1452 10.625C8.1452 10.4841 8.19129 10.349 8.27334 10.2494C8.35539 10.1498 8.46667 10.0938 8.5827 10.0938C8.93706 10.0934 9.28697 9.99794 9.60743 9.81429C9.92789 9.63063 10.211 9.3633 10.4365 9.0314C10.662 8.69949 10.8244 8.31119 10.912 7.89426C10.9996 7.47732 11.0103 7.04204 10.9433 6.6195C10.8763 6.19697 10.7333 5.79762 10.5244 5.44999C10.3156 5.10236 10.0461 4.81502 9.73524 4.60851C9.42436 4.40201 9.07975 4.28143 8.72604 4.25539C8.37234 4.22935 8.01826 4.29849 7.68911 4.45788C7.63544 4.48605 7.57767 4.50088 7.5192 4.50148C7.46074 4.50208 7.40277 4.48844 7.34872 4.46137C7.29466 4.43431 7.24563 4.39436 7.20451 4.34389C7.16338 4.29343 7.13101 4.23346 7.1093 4.16755C7.08758 4.10163 7.07697 4.03109 7.07808 3.96011C7.0792 3.88913 7.09202 3.81914 7.11579 3.75428C7.13956 3.68941 7.17379 3.63099 7.21647 3.58246C7.25915 3.53394 7.3094 3.49629 7.36426 3.47175C8.11756 3.10695 8.95543 3.09382 9.71623 3.4349C10.477 3.77598 11.1069 4.44709 11.4842 5.31878C11.8615 6.19047 11.9597 7.20097 11.7597 8.15533C11.5596 9.10969 11.0757 9.94029 10.4011 10.4869C11.4617 10.9616 12.3676 11.84 12.9834 12.9911C13.0468 13.1091 13.0689 13.2528 13.0451 13.3907C13.0212 13.5285 12.9531 13.6492 12.856 13.7262Z" fill="black"/>
</g>
<defs>
<clipPath id="clip0_100_4">
<rect width="14" height="17" fill="white"/>
</clipPath>
</defs>
</svg>
